<mxfile host="Electron" modified="2023-04-16T18:37:26.649Z" agent="Mozilla/5.0 (X11; Linux x86_64) AppleWebKit/537.36 (KHTML, like Gecko) draw.io/21.1.2 Chrome/106.0.5249.199 Electron/21.4.3 Safari/537.36" etag="kptIp7UOB2xWlwumKQ83" version="21.1.2" type="device">
  <diagram name="Page-1" id="9JiCJhedBSeGOr20cnOc">
    <mxGraphModel dx="1434" dy="816" grid="1" gridSize="10" guides="1" tooltips="1" connect="1" arrows="1" fold="1" page="1" pageScale="1" pageWidth="1169" pageHeight="827" math="0" shadow="0">
      <root>
        <mxCell id="0" />
        <mxCell id="1" parent="0" />
        <mxCell id="QIBVH5AfbSdVguuBvBT3-30" style="edgeStyle=orthogonalEdgeStyle;rounded=0;orthogonalLoop=1;jettySize=auto;html=1;exitX=0.5;exitY=1;exitDx=0;exitDy=0;strokeColor=#990000;" parent="1" source="QIBVH5AfbSdVguuBvBT3-6" edge="1">
          <mxGeometry relative="1" as="geometry">
            <mxPoint x="400" y="620" as="targetPoint" />
          </mxGeometry>
        </mxCell>
        <mxCell id="QIBVH5AfbSdVguuBvBT3-6" value="Welcome Socket" style="rounded=1;whiteSpace=wrap;html=1;" parent="1" vertex="1">
          <mxGeometry x="360" y="160" width="80" height="40" as="geometry" />
        </mxCell>
        <mxCell id="QIBVH5AfbSdVguuBvBT3-9" value="Client" style="shape=umlActor;verticalLabelPosition=bottom;verticalAlign=top;html=1;" parent="1" vertex="1">
          <mxGeometry x="170" y="60" width="30" height="60" as="geometry" />
        </mxCell>
        <mxCell id="QIBVH5AfbSdVguuBvBT3-10" value="Client" style="shape=umlActor;verticalLabelPosition=bottom;verticalAlign=top;html=1;" parent="1" vertex="1">
          <mxGeometry x="555" y="60" width="30" height="60" as="geometry" />
        </mxCell>
        <mxCell id="QIBVH5AfbSdVguuBvBT3-12" value="" style="endArrow=none;html=1;rounded=0;" parent="1" edge="1">
          <mxGeometry width="50" height="50" relative="1" as="geometry">
            <mxPoint x="200" y="620" as="sourcePoint" />
            <mxPoint x="200" y="160" as="targetPoint" />
          </mxGeometry>
        </mxCell>
        <mxCell id="QIBVH5AfbSdVguuBvBT3-13" value="" style="endArrow=none;html=1;rounded=0;" parent="1" edge="1">
          <mxGeometry width="50" height="50" relative="1" as="geometry">
            <mxPoint x="560" y="620" as="sourcePoint" />
            <mxPoint x="560" y="160" as="targetPoint" />
          </mxGeometry>
        </mxCell>
        <mxCell id="QIBVH5AfbSdVguuBvBT3-14" value="" style="endArrow=classic;html=1;rounded=0;dashed=1;" parent="1" edge="1">
          <mxGeometry width="50" height="50" relative="1" as="geometry">
            <mxPoint x="200" y="190" as="sourcePoint" />
            <mxPoint x="400" y="230" as="targetPoint" />
          </mxGeometry>
        </mxCell>
        <mxCell id="QIBVH5AfbSdVguuBvBT3-37" value="connect" style="edgeLabel;html=1;align=center;verticalAlign=middle;resizable=0;points=[];" parent="QIBVH5AfbSdVguuBvBT3-14" vertex="1" connectable="0">
          <mxGeometry x="-0.4046" y="2" relative="1" as="geometry">
            <mxPoint as="offset" />
          </mxGeometry>
        </mxCell>
        <mxCell id="QIBVH5AfbSdVguuBvBT3-18" value="Server" style="swimlane;fontStyle=0;childLayout=stackLayout;horizontal=1;startSize=26;fillColor=none;horizontalStack=0;resizeParent=1;resizeParentMax=0;resizeLast=0;collapsible=1;marginBottom=0;" parent="1" vertex="1">
          <mxGeometry x="328" y="68" width="140" height="52" as="geometry" />
        </mxCell>
        <mxCell id="QIBVH5AfbSdVguuBvBT3-19" value="+ run( ): void" style="text;strokeColor=none;fillColor=none;align=left;verticalAlign=top;spacingLeft=4;spacingRight=4;overflow=hidden;rotatable=0;points=[[0,0.5],[1,0.5]];portConstraint=eastwest;" parent="QIBVH5AfbSdVguuBvBT3-18" vertex="1">
          <mxGeometry y="26" width="140" height="26" as="geometry" />
        </mxCell>
        <mxCell id="QIBVH5AfbSdVguuBvBT3-22" value=".start()" style="text;html=1;align=center;verticalAlign=middle;resizable=0;points=[];autosize=1;strokeColor=none;fillColor=none;" parent="1" vertex="1">
          <mxGeometry x="390" y="120" width="60" height="30" as="geometry" />
        </mxCell>
        <mxCell id="QIBVH5AfbSdVguuBvBT3-28" style="edgeStyle=orthogonalEdgeStyle;rounded=0;orthogonalLoop=1;jettySize=auto;html=1;exitX=0.25;exitY=1;exitDx=0;exitDy=0;strokeColor=#990000;" parent="1" source="QIBVH5AfbSdVguuBvBT3-23" edge="1">
          <mxGeometry relative="1" as="geometry">
            <mxPoint x="290" y="620" as="targetPoint" />
          </mxGeometry>
        </mxCell>
        <mxCell id="QIBVH5AfbSdVguuBvBT3-29" style="edgeStyle=orthogonalEdgeStyle;rounded=0;orthogonalLoop=1;jettySize=auto;html=1;exitX=0.75;exitY=1;exitDx=0;exitDy=0;strokeColor=#990000;" parent="1" source="QIBVH5AfbSdVguuBvBT3-23" edge="1">
          <mxGeometry relative="1" as="geometry">
            <mxPoint x="330" y="620" as="targetPoint" />
          </mxGeometry>
        </mxCell>
        <mxCell id="QIBVH5AfbSdVguuBvBT3-23" value="Session" style="swimlane;fontStyle=1;align=center;verticalAlign=top;childLayout=stackLayout;horizontal=1;startSize=26;horizontalStack=0;resizeParent=1;resizeParentMax=0;resizeLast=0;collapsible=1;marginBottom=0;" parent="1" vertex="1">
          <mxGeometry x="270" y="280" width="80" height="86" as="geometry" />
        </mxCell>
        <mxCell id="QIBVH5AfbSdVguuBvBT3-24" value="+send()" style="text;strokeColor=none;fillColor=none;align=left;verticalAlign=top;spacingLeft=4;spacingRight=4;overflow=hidden;rotatable=0;points=[[0,0.5],[1,0.5]];portConstraint=eastwest;" parent="QIBVH5AfbSdVguuBvBT3-23" vertex="1">
          <mxGeometry y="26" width="80" height="26" as="geometry" />
        </mxCell>
        <mxCell id="QIBVH5AfbSdVguuBvBT3-25" value="" style="line;strokeWidth=1;fillColor=none;align=left;verticalAlign=middle;spacingTop=-1;spacingLeft=3;spacingRight=3;rotatable=0;labelPosition=right;points=[];portConstraint=eastwest;strokeColor=inherit;" parent="QIBVH5AfbSdVguuBvBT3-23" vertex="1">
          <mxGeometry y="52" width="80" height="8" as="geometry" />
        </mxCell>
        <mxCell id="QIBVH5AfbSdVguuBvBT3-26" value="+receive()" style="text;strokeColor=none;fillColor=none;align=left;verticalAlign=top;spacingLeft=4;spacingRight=4;overflow=hidden;rotatable=0;points=[[0,0.5],[1,0.5]];portConstraint=eastwest;" parent="QIBVH5AfbSdVguuBvBT3-23" vertex="1">
          <mxGeometry y="60" width="80" height="26" as="geometry" />
        </mxCell>
        <mxCell id="QIBVH5AfbSdVguuBvBT3-27" value="" style="endArrow=classic;html=1;rounded=0;entryX=0.5;entryY=0;entryDx=0;entryDy=0;" parent="1" target="QIBVH5AfbSdVguuBvBT3-23" edge="1">
          <mxGeometry width="50" height="50" relative="1" as="geometry">
            <mxPoint x="400" y="250" as="sourcePoint" />
            <mxPoint x="230" y="250" as="targetPoint" />
            <Array as="points">
              <mxPoint x="310" y="250" />
            </Array>
          </mxGeometry>
        </mxCell>
        <mxCell id="QIBVH5AfbSdVguuBvBT3-31" style="edgeStyle=orthogonalEdgeStyle;rounded=0;orthogonalLoop=1;jettySize=auto;html=1;exitX=0.25;exitY=1;exitDx=0;exitDy=0;strokeColor=#990000;" parent="1" source="QIBVH5AfbSdVguuBvBT3-33" edge="1">
          <mxGeometry relative="1" as="geometry">
            <mxPoint x="460" y="620" as="targetPoint" />
          </mxGeometry>
        </mxCell>
        <mxCell id="QIBVH5AfbSdVguuBvBT3-32" style="edgeStyle=orthogonalEdgeStyle;rounded=0;orthogonalLoop=1;jettySize=auto;html=1;exitX=0.75;exitY=1;exitDx=0;exitDy=0;strokeColor=#990000;" parent="1" source="QIBVH5AfbSdVguuBvBT3-33" edge="1">
          <mxGeometry relative="1" as="geometry">
            <mxPoint x="500" y="620" as="targetPoint" />
          </mxGeometry>
        </mxCell>
        <mxCell id="QIBVH5AfbSdVguuBvBT3-33" value="Session" style="swimlane;fontStyle=1;align=center;verticalAlign=top;childLayout=stackLayout;horizontal=1;startSize=26;horizontalStack=0;resizeParent=1;resizeParentMax=0;resizeLast=0;collapsible=1;marginBottom=0;" parent="1" vertex="1">
          <mxGeometry x="440" y="360" width="80" height="86" as="geometry" />
        </mxCell>
        <mxCell id="QIBVH5AfbSdVguuBvBT3-34" value="+send()" style="text;strokeColor=none;fillColor=none;align=left;verticalAlign=top;spacingLeft=4;spacingRight=4;overflow=hidden;rotatable=0;points=[[0,0.5],[1,0.5]];portConstraint=eastwest;" parent="QIBVH5AfbSdVguuBvBT3-33" vertex="1">
          <mxGeometry y="26" width="80" height="26" as="geometry" />
        </mxCell>
        <mxCell id="QIBVH5AfbSdVguuBvBT3-35" value="" style="line;strokeWidth=1;fillColor=none;align=left;verticalAlign=middle;spacingTop=-1;spacingLeft=3;spacingRight=3;rotatable=0;labelPosition=right;points=[];portConstraint=eastwest;strokeColor=inherit;" parent="QIBVH5AfbSdVguuBvBT3-33" vertex="1">
          <mxGeometry y="52" width="80" height="8" as="geometry" />
        </mxCell>
        <mxCell id="QIBVH5AfbSdVguuBvBT3-36" value="+receive()" style="text;strokeColor=none;fillColor=none;align=left;verticalAlign=top;spacingLeft=4;spacingRight=4;overflow=hidden;rotatable=0;points=[[0,0.5],[1,0.5]];portConstraint=eastwest;" parent="QIBVH5AfbSdVguuBvBT3-33" vertex="1">
          <mxGeometry y="60" width="80" height="26" as="geometry" />
        </mxCell>
        <mxCell id="QIBVH5AfbSdVguuBvBT3-38" value="" style="endArrow=classic;html=1;rounded=0;entryX=0.5;entryY=0;entryDx=0;entryDy=0;" parent="1" target="QIBVH5AfbSdVguuBvBT3-33" edge="1">
          <mxGeometry width="50" height="50" relative="1" as="geometry">
            <mxPoint x="400" y="310" as="sourcePoint" />
            <mxPoint x="490" y="280" as="targetPoint" />
            <Array as="points">
              <mxPoint x="480" y="310" />
            </Array>
          </mxGeometry>
        </mxCell>
        <mxCell id="QIBVH5AfbSdVguuBvBT3-39" value="" style="endArrow=classic;html=1;rounded=0;dashed=1;" parent="1" edge="1">
          <mxGeometry width="50" height="50" relative="1" as="geometry">
            <mxPoint x="560" y="260" as="sourcePoint" />
            <mxPoint x="400" y="280" as="targetPoint" />
          </mxGeometry>
        </mxCell>
        <mxCell id="QIBVH5AfbSdVguuBvBT3-40" value="connect" style="edgeLabel;html=1;align=center;verticalAlign=middle;resizable=0;points=[];" parent="QIBVH5AfbSdVguuBvBT3-39" vertex="1" connectable="0">
          <mxGeometry x="-0.4046" y="2" relative="1" as="geometry">
            <mxPoint as="offset" />
          </mxGeometry>
        </mxCell>
        <mxCell id="QIBVH5AfbSdVguuBvBT3-41" value="request" style="endArrow=classic;html=1;rounded=0;dashed=1;" parent="1" edge="1">
          <mxGeometry width="50" height="50" relative="1" as="geometry">
            <mxPoint x="200" y="428" as="sourcePoint" />
            <mxPoint x="290" y="440" as="targetPoint" />
          </mxGeometry>
        </mxCell>
        <mxCell id="QIBVH5AfbSdVguuBvBT3-43" value="response" style="endArrow=classic;html=1;rounded=0;dashed=1;" parent="1" edge="1">
          <mxGeometry x="-0.0038" width="50" height="50" relative="1" as="geometry">
            <mxPoint x="330" y="480" as="sourcePoint" />
            <mxPoint x="200" y="500" as="targetPoint" />
            <mxPoint as="offset" />
          </mxGeometry>
        </mxCell>
        <mxCell id="QIBVH5AfbSdVguuBvBT3-44" value="request" style="endArrow=classic;html=1;rounded=0;dashed=1;" parent="1" edge="1">
          <mxGeometry width="50" height="50" relative="1" as="geometry">
            <mxPoint x="560" y="480" as="sourcePoint" />
            <mxPoint x="500" y="490" as="targetPoint" />
          </mxGeometry>
        </mxCell>
        <mxCell id="QIBVH5AfbSdVguuBvBT3-45" value="update" style="endArrow=classic;html=1;rounded=0;dashed=1;" parent="1" edge="1">
          <mxGeometry width="50" height="50" relative="1" as="geometry">
            <mxPoint x="460" y="490" as="sourcePoint" />
            <mxPoint x="560" y="510" as="targetPoint" />
          </mxGeometry>
        </mxCell>
        <mxCell id="QIBVH5AfbSdVguuBvBT3-47" value="response" style="endArrow=classic;html=1;rounded=0;dashed=1;" parent="1" edge="1">
          <mxGeometry width="50" height="50" relative="1" as="geometry">
            <mxPoint x="459.9999999999998" y="510" as="sourcePoint" />
            <mxPoint x="559.9999999999998" y="530" as="targetPoint" />
          </mxGeometry>
        </mxCell>
        <mxCell id="QIBVH5AfbSdVguuBvBT3-48" value="Sending Thread" style="text;html=1;strokeColor=none;fillColor=none;align=center;verticalAlign=middle;whiteSpace=wrap;rounded=0;rotation=90;" parent="1" vertex="1">
          <mxGeometry x="270" y="670" width="120" height="30" as="geometry" />
        </mxCell>
        <mxCell id="QIBVH5AfbSdVguuBvBT3-49" value="Receiving Thread" style="text;html=1;align=center;verticalAlign=middle;resizable=0;points=[];autosize=1;strokeColor=none;fillColor=none;rotation=90;" parent="1" vertex="1">
          <mxGeometry x="230" y="670" width="120" height="30" as="geometry" />
        </mxCell>
        <mxCell id="QIBVH5AfbSdVguuBvBT3-50" value="" style="endArrow=classic;html=1;rounded=0;exitX=0.514;exitY=1;exitDx=0;exitDy=0;exitPerimeter=0;" parent="1" source="QIBVH5AfbSdVguuBvBT3-19" edge="1">
          <mxGeometry width="50" height="50" relative="1" as="geometry">
            <mxPoint x="350" y="210" as="sourcePoint" />
            <mxPoint x="400" y="160" as="targetPoint" />
          </mxGeometry>
        </mxCell>
        <mxCell id="QIBVH5AfbSdVguuBvBT3-51" value="Sending Thread" style="text;html=1;strokeColor=none;fillColor=none;align=center;verticalAlign=middle;whiteSpace=wrap;rounded=0;rotation=90;" parent="1" vertex="1">
          <mxGeometry x="400" y="670" width="120" height="30" as="geometry" />
        </mxCell>
        <mxCell id="QIBVH5AfbSdVguuBvBT3-52" value="Receiving Thread" style="text;html=1;align=center;verticalAlign=middle;resizable=0;points=[];autosize=1;strokeColor=none;fillColor=none;rotation=90;" parent="1" vertex="1">
          <mxGeometry x="440" y="670" width="120" height="30" as="geometry" />
        </mxCell>
        <mxCell id="QIBVH5AfbSdVguuBvBT3-53" value="Welcome Thread" style="text;html=1;strokeColor=none;fillColor=none;align=center;verticalAlign=middle;whiteSpace=wrap;rounded=0;rotation=90;" parent="1" vertex="1">
          <mxGeometry x="340" y="670" width="120" height="30" as="geometry" />
        </mxCell>
        <mxCell id="QIBVH5AfbSdVguuBvBT3-54" value="Client Scheme" style="text;html=1;strokeColor=none;fillColor=none;align=center;verticalAlign=middle;whiteSpace=wrap;rounded=0;rotation=90;" parent="1" vertex="1">
          <mxGeometry x="140" y="660" width="120" height="30" as="geometry" />
        </mxCell>
        <mxCell id="QIBVH5AfbSdVguuBvBT3-55" value="Client Scheme" style="text;html=1;strokeColor=none;fillColor=none;align=center;verticalAlign=middle;whiteSpace=wrap;rounded=0;rotation=90;" parent="1" vertex="1">
          <mxGeometry x="500" y="660" width="120" height="30" as="geometry" />
        </mxCell>
      </root>
    </mxGraphModel>
  </diagram>
</mxfile>
